<?xml version="1.0" standalone="no"?>
<!DOCTYPE svg PUBLIC "-//W3C//DTD SVG 20010904//EN"
 "http://www.w3.org/TR/2001/REC-SVG-20010904/DTD/svg10.dtd">
<svg version="1.0" xmlns="http://www.w3.org/2000/svg"
 width="750.000000pt" height="750.000000pt" viewBox="0 0 750.000000 750.000000"
 preserveAspectRatio="xMidYMid meet">
<metadata>
Created by potrace 1.15, written by Peter Selinger 2001-2017
</metadata>
<g transform="translate(0.000000,750.000000) scale(0.100000,-0.100000)"
fill="#000000" stroke="none">
<path d="M3701 7324 c-6 -14 -11 -30 -11 -37 0 -22 -45 -99 -77 -132 -37 -37
-43 -74 -14 -92 10 -6 22 -28 25 -48 4 -20 17 -46 29 -58 21 -21 22 -28 24
-337 1 -173 3 -319 3 -325 1 -5 0 -61 -3 -124 -3 -93 -7 -115 -20 -123 -10 -5
-17 -14 -17 -20 0 -7 -9 -22 -21 -34 -17 -18 -28 -21 -60 -17 l-39 6 0 -53 c0
-42 4 -55 23 -70 26 -22 22 -30 -14 -23 -16 3 -70 46 -130 104 -57 54 -105 99
-107 99 -2 0 -2 -34 -1 -75 2 -41 1 -76 -1 -77 -153 -111 -262 -233 -276 -309
-4 -19 -17 -45 -30 -59 -13 -14 -36 -59 -53 -100 -41 -105 -45 -121 -29 -116
7 3 54 14 103 26 50 12 105 30 123 41 20 11 52 19 80 19 26 0 78 8 116 18 l70
18 12 73 c7 40 15 75 18 78 3 3 39 -15 79 -41 61 -37 76 -52 81 -77 10 -52 7
-104 -8 -124 -15 -21 -10 -44 12 -60 8 -7 12 -23 10 -40 l-3 -30 -285 -5
c-272 -5 -287 -6 -333 -28 -55 -27 -106 -23 -114 9 -13 48 -163 6 -163 -45 0
-29 -18 -46 -49 -46 -23 0 -23 1 -8 18 20 22 22 52 4 76 -10 14 -25 17 -71 14
l-59 -3 -27 -75 c-15 -41 -41 -111 -58 -156 -20 -53 -27 -85 -21 -95 13 -21
13 -21 -30 -85 -41 -62 -121 -260 -121 -300 0 -13 9 -28 20 -34 33 -18 24 -39
-23 -52 l-43 -11 -37 -100 c-20 -55 -35 -102 -33 -104 2 -2 98 67 212 153 350
264 374 283 374 306 0 11 11 33 24 49 15 17 22 36 19 48 -4 15 2 20 27 26 33
7 60 -7 60 -31 0 -9 32 9 77 43 76 58 77 58 162 64 84 7 364 2 389 -6 7 -3 12
-23 12 -53 0 -28 9 -70 21 -97 17 -39 22 -74 26 -223 7 -195 7 -186 3 -294 -2
-59 2 -84 14 -103 15 -23 15 -29 -4 -85 -11 -34 -17 -66 -13 -73 4 -7 6 -77 5
-157 -3 -159 0 -149 -93 -290 -16 -25 -36 -60 -44 -78 -9 -18 -36 -58 -61 -89
-58 -71 -88 -119 -103 -165 -7 -20 -23 -43 -36 -52 -13 -8 -95 -124 -183 -256
-154 -231 -160 -242 -155 -281 6 -45 -10 -67 -35 -46 -18 15 -8 29 -298 -406
-136 -202 -250 -383 -254 -401 -10 -45 -17 -56 -46 -66 -13 -5 -24 -16 -24
-25 0 -12 16 -15 88 -15 77 0 91 3 108 21 l18 20 8 -21 c7 -20 13 -21 75 -16
58 4 92 8 125 15 4 0 9 10 13 21 4 12 14 19 28 18 12 -1 36 2 53 6 24 5 34 2
49 -14 10 -11 26 -20 35 -20 9 0 25 -7 36 -15 24 -18 313 -22 331 -4 7 7 29 9
60 4 26 -4 112 -9 191 -11 78 -3 142 -7 142 -10 0 -3 -7 -16 -17 -30 -24 -37
-22 -325 3 -394 17 -46 16 -52 0 -124 -27 -113 -5 -252 52 -339 21 -31 28 -58
33 -116 5 -58 22 -118 69 -248 34 -95 66 -171 70 -168 4 2 20 39 35 82 15 43
47 133 71 200 24 68 44 136 44 153 0 17 11 53 25 81 53 103 64 201 66 570 l2
336 126 6 c69 3 152 11 183 18 51 12 59 11 76 -4 27 -24 297 -25 344 -1 27 14
40 15 82 5 28 -7 93 -15 143 -18 l93 -6 15 38 c20 46 13 55 -25 33 -28 -16
-31 -16 -52 3 -16 14 -19 22 -11 25 7 3 13 16 13 28 0 25 28 56 50 56 7 0 21
-7 31 -16 10 -9 22 -13 28 -10 5 3 71 192 147 419 75 226 139 419 142 427 3 8
-52 -37 -124 -99 -228 -201 -222 -195 -221 -237 1 -31 2 -34 10 -16 12 27 43
37 62 22 17 -14 20 -40 5 -40 -5 0 -25 -14 -44 -31 -44 -38 -77 -36 -90 6 -6
17 -11 32 -12 33 -2 2 -70 -55 -152 -127 l-150 -131 -141 0 c-137 0 -143 1
-166 25 -14 13 -25 34 -25 47 0 50 62 218 107 291 22 35 26 37 72 37 53 0 61
8 61 61 0 32 9 35 48 15 15 -7 41 -17 58 -20 28 -6 32 -4 36 19 5 26 4 26 -34
20 -54 -9 -131 29 -99 49 4 3 43 -1 86 -9 42 -8 91 -14 108 -14 l32 2 -30 4
c-54 8 -105 24 -105 33 0 6 6 10 13 11 6 0 2 4 -10 9 -31 13 -29 30 3 30 36 0
64 17 58 35 -4 8 -11 12 -18 8 -18 -12 -76 -13 -76 -1 0 12 55 98 113 175 40
54 96 89 152 95 26 3 32 -2 47 -33 9 -20 29 -44 44 -54 25 -16 34 -17 73 -6
67 18 74 27 68 87 -5 47 -3 53 16 59 21 7 21 8 -3 12 -14 2 -47 11 -73 18 -57
17 -93 5 -116 -38 -10 -19 -25 -28 -55 -33 -83 -13 -124 -45 -205 -157 -24
-32 -45 -56 -47 -54 -3 3 3 42 12 88 16 79 16 90 1 173 -9 49 -14 93 -11 98 3
4 24 -3 48 -17 42 -25 79 -31 110 -19 20 8 21 53 1 101 -19 44 -19 43 5 43 36
0 90 -28 100 -52 9 -23 9 -22 9 4 1 32 -35 69 -97 99 -46 23 -46 34 3 55 51
21 91 60 114 110 12 25 21 48 19 49 -6 6 -151 -35 -198 -56 -24 -11 -52 -27
-62 -35 -27 -26 -39 -8 -32 49 5 46 2 60 -28 116 -18 36 -38 66 -43 68 -6 2
-24 -32 -40 -74 -24 -64 -30 -92 -28 -151 1 -52 -2 -72 -10 -68 -69 29 -125
38 -203 31 -46 -4 -86 -10 -89 -15 -3 -4 14 -25 38 -47 38 -35 61 -48 121 -67
18 -6 18 -7 -1 -29 -21 -22 -43 -60 -43 -72 0 -4 14 5 31 19 53 45 67 25 25
-37 -13 -19 -27 -44 -31 -56 -9 -29 23 -28 100 4 33 14 61 25 61 25 1 0 4 -20
7 -45 8 -55 32 -105 51 -105 12 0 12 5 -1 31 -17 34 -11 104 12 135 19 27 31
10 44 -60 22 -122 11 -223 -36 -328 -26 -59 -43 -74 -43 -39 0 32 -11 51 -31
51 -21 0 -34 -48 -27 -105 3 -27 1 -34 -10 -30 -7 3 -29 5 -47 5 -26 0 -48 12
-94 50 -46 38 -60 46 -58 31 2 -10 9 -26 16 -35 26 -31 2 -29 -49 4 -59 38
-72 36 -30 -5 35 -33 37 -42 13 -48 -13 -3 -11 -5 6 -6 16 -1 21 -5 17 -16 -9
-25 40 -38 120 -31 39 3 74 3 77 0 8 -9 -20 -81 -52 -134 -34 -55 -94 -203
-112 -278 -9 -37 -22 -62 -42 -78 -27 -23 -36 -24 -153 -24 -121 0 -125 1
-135 24 -8 18 -7 30 5 54 31 59 17 200 -31 312 -13 31 -13 35 4 47 10 7 24 17
31 23 9 8 12 96 12 376 l0 365 180 270 c102 154 180 280 180 293 0 13 9 28 23
35 21 12 59 65 102 142 11 20 27 43 37 52 9 9 82 116 163 239 125 188 146 224
136 240 -16 25 -14 48 5 55 12 4 13 8 3 14 -10 6 -7 14 14 33 15 14 27 29 27
33 0 5 10 13 23 18 15 7 23 20 25 43 4 39 41 63 65 43 11 -9 41 29 156 202 77
117 141 219 141 228 0 8 -13 28 -30 44 -16 16 -30 35 -30 42 0 10 -40 13 -189
13 -159 0 -191 -2 -202 -16 -11 -14 -13 -14 -21 0 -8 14 -59 16 -434 16 l-424
0 -12 26 c-11 23 -10 29 10 44 23 19 29 54 12 65 -5 3 -10 37 -10 74 0 53 4
72 18 84 10 10 22 17 26 17 4 0 30 16 59 35 33 22 55 31 61 25 5 -5 12 -37 14
-70 2 -33 9 -64 16 -68 13 -11 457 -122 486 -122 17 0 18 3 8 33 -6 17 -22 44
-36 59 -17 19 -28 45 -32 80 -12 89 -139 276 -205 304 -18 7 -36 22 -39 31 -4
10 -25 31 -47 47 l-41 29 6 76 7 76 -72 -74 c-45 -47 -96 -87 -137 -108 -68
-37 -95 -36 -49 1 23 18 27 29 27 69 0 49 -7 55 -42 36 -17 -9 -25 -6 -49 17
-16 15 -29 33 -29 38 0 6 -10 16 -22 21 -15 7 -22 17 -19 30 1 11 2 41 2 68
-1 26 -1 65 -1 87 0 22 -1 64 -1 93 0 28 1 72 1 97 2 73 1 108 -4 230 -2 64 1
136 7 163 8 35 8 56 0 78 -14 36 -9 55 16 62 11 3 22 21 29 49 6 24 21 53 32
63 28 26 25 44 -16 86 -21 22 -49 69 -68 115 l-31 78 -76 2 c-73 3 -77 2 -88
-22z m174 -81 c16 -40 44 -87 62 -105 29 -31 31 -34 16 -53 -8 -11 -24 -39
-35 -62 l-19 -43 -57 -1 c-31 -1 -68 -4 -82 -8 -42 -12 -87 9 -104 49 -8 19
-23 47 -33 62 -17 28 -17 28 17 61 42 40 80 101 80 127 0 44 10 51 68 48 l56
-3 31 -72z m-26 -328 c37 -42 39 -71 8 -116 l-23 -34 24 -35 c26 -39 24 -77
-6 -120 -18 -24 -18 -26 6 -60 26 -39 25 -77 -6 -120 -18 -24 -18 -26 6 -60
27 -40 24 -81 -9 -116 -11 -12 -16 -25 -11 -28 5 -3 17 -22 26 -41 33 -69 -5
-135 -76 -135 -77 0 -114 85 -67 151 l20 29 -20 26 c-27 34 -27 87 0 124 l22
28 -22 28 c-28 35 -28 94 -1 119 11 10 20 22 20 27 0 6 -9 21 -20 35 -13 17
-20 41 -20 69 0 33 5 47 20 56 11 7 20 18 20 24 0 6 -9 19 -20 29 -50 45 -4
155 65 155 25 0 40 -8 64 -35z m103 -962 c31 -9 60 -23 63 -31 3 -8 4 -16 3
-17 -49 -32 -69 -53 -92 -95 -15 -28 -26 -54 -23 -57 10 -9 120 28 186 63 35
19 73 34 83 34 12 0 23 11 30 30 11 33 33 36 33 5 0 -11 18 -31 43 -48 24 -16
48 -40 54 -53 6 -13 20 -26 30 -30 46 -14 126 -105 181 -206 19 -34 25 -56 21
-77 -4 -19 0 -38 10 -52 21 -31 20 -39 -6 -39 -31 0 -331 80 -345 92 -7 6 -13
28 -13 49 0 33 -35 149 -45 149 -2 0 -28 -24 -59 -54 -68 -67 -93 -77 -117
-47 -26 32 -33 11 -39 -119 l-5 -115 -30 -5 c-38 -7 -46 -40 -13 -55 18 -8 24
-19 26 -53 4 -51 -11 -61 -60 -37 -30 15 -29 13 15 -27 44 -40 47 -46 47 -93
0 -60 26 -119 74 -173 31 -34 36 -46 36 -88 0 -28 -9 -65 -21 -92 -16 -31 -23
-69 -26 -135 -2 -51 -9 -104 -15 -120 -8 -20 -7 -31 2 -42 8 -9 10 -28 6 -52
-4 -21 -8 -58 -9 -83 -2 -40 -22 -75 -187 -322 -102 -153 -188 -278 -192 -278
-4 0 -6 65 -5 144 4 164 -3 148 110 279 42 49 85 104 97 124 l20 35 -29 -22
c-17 -11 -54 -32 -84 -45 -29 -14 -64 -36 -77 -50 -13 -14 -27 -25 -30 -25
-16 0 -19 61 -6 110 12 44 11 56 -1 80 -11 23 -12 38 -3 70 6 22 9 44 6 49 -3
4 -8 59 -11 121 -4 81 -11 126 -25 158 -11 25 -20 66 -20 94 0 44 5 57 46 109
36 45 49 72 55 111 6 34 17 60 35 79 30 31 30 31 -2 47 -42 22 -41 117 2 128
36 9 32 43 -6 51 -36 7 -38 14 -42 143 -4 112 -11 130 -39 98 -18 -21 -20 -22
-29 -5 -6 9 -20 17 -32 17 -11 0 -41 21 -66 46 -41 41 -47 44 -58 29 -12 -16
-27 -72 -39 -147 -3 -21 -14 -42 -23 -46 -27 -14 -372 -96 -377 -90 -12 12 43
113 68 127 21 11 26 20 24 51 -1 30 7 49 41 93 55 73 134 151 194 189 35 23
48 38 48 55 0 36 21 28 84 -32 31 -30 63 -55 69 -55 7 0 47 -12 91 -25 43 -14
81 -23 84 -21 13 14 -15 66 -59 110 -27 27 -49 54 -49 60 0 6 28 20 63 31 75
24 239 24 329 -2z m795 -1175 c-31 -57 -94 -173 -142 -258 -68 -122 -84 -160
-80 -182 5 -21 0 -32 -29 -59 -20 -18 -36 -38 -36 -45 0 -7 -6 -17 -14 -21 -8
-4 -38 -50 -66 -101 -40 -73 -50 -100 -48 -130 3 -32 0 -37 -20 -40 -22 -3
-46 -34 -94 -121 -13 -23 -38 -42 -93 -68 -42 -19 -79 -33 -82 -29 -4 4 -6 58
-5 122 2 110 17 174 41 174 13 0 330 395 358 447 14 24 33 48 44 53 22 12 169
192 169 207 0 12 143 163 149 158 2 -2 -22 -50 -52 -107z m-434 65 c26 -3 47
-10 47 -17 0 -6 -20 -41 -44 -77 -25 -37 -51 -82 -59 -100 -8 -19 -30 -53 -49
-76 -19 -23 -61 -80 -93 -127 -31 -47 -61 -86 -66 -86 -14 0 -20 61 -16 175 3
86 8 120 25 155 12 25 23 68 24 95 l3 50 58 6 c32 4 61 10 65 13 4 4 18 4 32
1 14 -4 46 -9 73 -12z m-423 -1320 c0 -5 7 -48 15 -98 8 -49 15 -93 15 -97 0
-11 -52 -36 -152 -73 -106 -40 -102 -43 -113 96 l-7 96 99 41 c94 39 143 51
143 35z m-350 -591 l-1 -107 -65 -80 c-179 -221 -195 -244 -184 -264 15 -29
13 -32 -16 -25 -20 5 -31 2 -43 -13 -221 -279 -455 -563 -462 -563 -13 0 -11
12 4 35 8 11 31 52 52 90 52 97 84 155 187 339 48 87 88 169 88 182 0 13 11
34 25 46 15 12 40 50 57 83 77 153 172 306 206 334 37 31 61 53 88 82 14 16
17 15 40 -8 22 -22 24 -31 24 -131z m450 -168 c0 -278 -1 -296 -17 -289 -10 4
-45 15 -78 25 -33 9 -82 26 -109 38 -27 12 -51 21 -53 18 -2 -2 48 -58 111
-125 124 -131 142 -164 149 -271 5 -82 -7 -118 -48 -137 -19 -9 -35 -23 -35
-30 0 -7 19 -34 42 -59 l42 -46 -2 -121 c0 -67 -6 -137 -11 -155 -7 -22 -6
-42 1 -63 7 -20 9 -140 5 -357 -5 -349 -12 -402 -61 -500 -13 -26 -26 -69 -29
-97 -3 -27 -20 -88 -37 -135 -18 -47 -39 -104 -47 -127 -9 -24 -19 -43 -23
-43 -10 0 -46 84 -71 167 l-21 66 21 28 c12 16 24 42 27 57 5 26 -1 35 -55 82
-65 57 -74 74 -91 188 -10 72 -10 75 19 125 16 29 43 67 60 86 17 19 28 38 25
42 -3 5 -20 16 -40 25 -69 33 -83 85 -76 281 2 62 2 63 42 83 22 11 40 25 40
30 0 6 -18 39 -40 74 -39 62 -40 65 -40 153 0 89 16 153 41 168 15 10 2 72
-23 113 -18 29 -19 42 -13 90 5 31 8 76 7 99 -2 37 1 44 25 57 16 8 42 29 58
46 28 31 29 33 11 44 -41 24 -78 60 -87 83 -8 21 14 59 178 304 103 153 190
279 195 279 4 0 8 -133 8 -296z m-400 -345 c13 -24 5 -73 -16 -90 -10 -8 -14
-33 -14 -85 0 -40 -4 -76 -10 -79 -23 -14 -5 -104 32 -156 6 -9 8 -24 5 -33
-6 -14 -28 -16 -172 -16 -91 0 -165 3 -165 8 0 4 16 30 34 58 36 53 36 64 5
64 -15 0 -17 6 -13 29 4 21 2 30 -11 34 -9 4 -14 11 -10 16 6 11 64 10 81 -2
21 -12 64 34 145 154 44 66 84 119 89 119 5 0 14 -9 20 -21z"/>
<path d="M3746 5738 c-22 -35 -39 -74 -39 -88 0 -14 14 -48 31 -76 19 -31 32
-65 32 -85 0 -19 5 -41 10 -49 9 -13 11 -13 20 0 11 16 12 22 14 62 1 15 17
56 36 91 l33 63 -46 72 c-26 40 -48 72 -49 72 -2 0 -21 -28 -42 -62z"/>
</g>
</svg>
